<svg width="100%" height="100%" viewBox="0 0 97 24" fill="none" xmlns="http://www.w3.org/2000/svg">
<rect x="19.4" width="5.81999" height="23.28" fill="#3D3D3D"/>
<rect x="43.65" width="5.81999" height="23.28" fill="#3D3D3D"/>
<rect x="71.78" width="5.81999" height="23.28" fill="#3D3D3D"/>
<rect x="56.26" width="5.81999" height="23.28" fill="#3D3D3D"/>
<rect x="32.0099" width="5.81999" height="8.72999" fill="#3D3D3D"/>
<rect x="32.0099" y="12.61" width="5.81999" height="8.72999" fill="#3D3D3D"/>
<rect x="19.4" y="3.87997" width="3.88" height="11.64" transform="rotate(-90 19.4 3.87997)" fill="#3D3D3D"/>
<rect x="43.65" y="3.87997" width="3.88" height="11.64" transform="rotate(-90 43.65 3.87997)" fill="#3D3D3D"/>
<rect x="65.9599" y="3.87997" width="3.88" height="11.64" transform="rotate(-90 65.9599 3.87997)" fill="#3D3D3D"/>
<path d="M77.5999 3.87997L77.5999 -2.14577e-05L93.1199 -2.14208e-05L96.9999 3.87997L77.5999 3.87997Z" fill="#3D3D3D"/>
<path d="M78.5699 8.72998L78.5699 4.84998L96.9999 4.84998L93.1199 8.72998L78.5699 8.72998Z" fill="#6B6B6B"/>
<path d="M78.5699 13.58L78.5699 9.69999L92.1499 9.69999L88.2699 13.58L78.5699 13.58Z" fill="#6B6B6B"/>
<path d="M78.5699 18.43L78.5699 14.55L87.2999 14.55L83.4199 18.43L78.5699 18.43Z" fill="#6B6B6B"/>
<path d="M78.5699 23.28L78.5699 19.4L82.4499 19.4L78.5699 23.28Z" fill="#6B6B6B"/>
<path d="M19.4 3.87997L19.4 -2.14577e-05L3.88004 -2.14208e-05L4.19617e-05 3.87997L19.4 3.87997Z" fill="#3D3D3D"/>
<path d="M18.43 8.72998L18.43 4.84998L9.70634e-06 4.84998L3.88001 8.72998L18.43 8.72998Z" fill="#6B6B6B"/>
<path d="M18.43 13.58L18.43 9.69999L4.85001 9.69999L8.73 13.58L18.43 13.58Z" fill="#6B6B6B"/>
<path d="M18.43 18.43L18.43 14.55L9.7 14.55L13.58 18.43L18.43 18.43Z" fill="#6B6B6B"/>
<path d="M18.43 23.28L18.43 19.4L14.55 19.4L18.43 23.28Z" fill="#6B6B6B"/>
<rect x="50.4399" y="13.58" width="3.88" height="11.64" transform="rotate(-90 50.4399 13.58)" fill="#3D3D3D"/>
<rect x="26.1899" y="10.67" width="3.88" height="11.64" transform="rotate(-90 26.1899 10.67)" fill="#3D3D3D"/>
<rect x="26.1899" y="23.28" width="3.88" height="11.64" transform="rotate(-90 26.1899 23.28)" fill="#3D3D3D"/>
</svg>
